<svg width="73" height="67" viewBox="0 0 73 67" fill="none" xmlns="http://www.w3.org/2000/svg">
<path d="M63.5292 19.7631C63.4142 17.5545 62.5841 15.4431 61.1642 13.7476C59.7442 12.052 57.8114 10.8642 55.6573 10.3633C53.164 9.76928 50.5386 10.1294 48.2974 11.3729C46.0561 12.6164 44.361 14.6533 43.5454 17.0832L37.4053 15.6147C37.775 13.0754 37.1815 10.4897 35.7415 8.36573C34.3015 6.24181 32.1191 4.7333 29.6234 4.13672C27.4779 3.61243 25.2201 3.79952 23.1901 4.66982C21.1602 5.54011 19.468 7.04647 18.3685 8.96198L4.6864 32.5139C4.5354 32.7766 4.42245 33.0593 4.35091 33.3537L3.62572 36.3858C2.66909 40.4069 3.34661 44.6432 5.50963 48.1654C7.67264 51.6875 11.1445 54.2078 15.1634 55.1732C18.1109 55.8728 21.1983 55.699 24.0486 54.673C26.899 53.6469 29.3888 51.813 31.2141 49.3953L33.7793 50.0088C34.3131 52.9908 35.7038 55.7528 37.7814 57.9574C39.859 60.1621 42.5337 61.714 45.4787 62.4237C49.5001 63.3813 53.7372 62.7043 57.26 60.5414C60.7828 58.3784 63.3036 54.9062 64.2692 50.8867L64.9936 47.8576C65.0647 47.5605 65.0888 47.2585 65.0744 46.9569L63.5292 19.7631ZM16.6138 49.1089C14.2028 48.5289 12.1201 47.0166 10.8222 44.9035C9.52432 42.7904 9.11717 40.249 9.68999 37.8362C9.7451 37.6058 9.84814 37.4028 9.91769 37.179C10.6298 34.9349 12.1634 33.0426 14.2114 31.8812C16.2593 30.7197 18.6705 30.3747 20.962 30.9154C23.3745 31.4924 25.459 33.0041 26.7569 35.1181C28.0548 37.232 28.4598 39.7749 27.8828 42.1874L27.8763 42.2147C27.2904 44.6185 25.7771 46.6927 23.6669 47.9845C21.5567 49.2762 19.0211 49.6805 16.6138 49.1089ZM46.9291 56.3595C44.5238 55.78 42.4455 54.2722 41.1481 52.1655C39.8507 50.0588 39.4397 47.5242 40.0048 45.1155L40.0113 45.0882C40.2968 43.8936 40.8149 42.7669 41.5358 41.7725C42.2567 40.7781 43.1664 39.9354 44.213 39.2926C46.3267 37.9943 48.8696 37.5889 51.2822 38.1655C53.6948 38.7421 55.7795 40.2535 57.0778 42.3672C58.3761 44.4809 58.7815 47.0237 58.2049 49.4363C57.6247 51.8479 56.1119 53.931 53.9981 55.2288C51.8844 56.5266 49.3422 56.9332 46.9291 56.3595Z" fill="white"/>
</svg>
