<svg width="201" height="54" viewBox="0 0 201 54" fill="none" xmlns="http://www.w3.org/2000/svg">
<path d="M6.96 1.6H0.696V52H34.392V46.168H6.96V1.6ZM63.0992 0.735999C47.1872 0.735999 37.3952 12.328 37.3952 26.944C37.3952 40.192 45.7472 53.008 63.0272 53.008C80.3072 53.008 88.5152 40.12 88.5872 26.944C88.6592 13.624 80.1632 0.807998 63.0992 0.735999ZM82.3232 26.944C82.3232 36.88 76.3472 47.104 63.0992 47.104C49.8512 47.104 43.6592 37.168 43.6592 26.944C43.6592 15.928 50.2832 6.496 63.0992 6.496C76.2752 6.64 82.3952 16.72 82.3232 26.944ZM140.47 8.152C135.358 3.112 128.662 0.591997 121.966 0.591997C105.55 0.591997 95.6859 12.184 95.7579 27.232C95.7579 40.768 104.11 52.936 122.038 52.936C130.174 52.936 136.438 49.84 141.55 44.368V24.424H120.166V29.968H135.862V41.92C131.686 45.52 126.862 47.032 122.11 47.032C108.43 47.032 101.95 37.456 101.95 27.232C101.95 16.144 109.006 6.424 121.966 6.424C127.078 6.424 132.91 8.512 136.87 12.328L140.47 8.152ZM174.966 0.735999C159.054 0.735999 149.262 12.328 149.262 26.944C149.262 40.192 157.614 53.008 174.894 53.008C192.174 53.008 200.382 40.12 200.454 26.944C200.526 13.624 192.03 0.807998 174.966 0.735999ZM194.19 26.944C194.19 36.88 188.214 47.104 174.966 47.104C161.718 47.104 155.526 37.168 155.526 26.944C155.526 15.928 162.15 6.496 174.966 6.496C188.142 6.64 194.262 16.72 194.19 26.944Z" fill="white"/>
</svg>
