<svg width="122" height="101" viewBox="0 0 122 101" fill="none" xmlns="http://www.w3.org/2000/svg">
<path d="M52.3475 73.8859C52.3475 90.1544 40.8253 100.322 26.5919 100.322C11.0031 100.322 0.158614 89.4765 0.158614 73.8859C-0.519164 66.4295 0.836392 61.0067 6.93639 46.094L23.8808 0H49.6364L36.7586 49.4832C46.2475 53.5503 52.3475 62.3624 52.3475 73.8859ZM121.481 73.8859C121.481 90.1544 109.959 100.322 95.7253 100.322C80.1364 100.322 69.2919 89.4765 69.2919 73.8859C69.2919 66.4295 70.6475 61.0067 76.7475 46.094L93.0142 0H118.77L105.892 49.4832C115.381 53.5503 121.481 62.3624 121.481 73.8859Z" fill="#29ABE2" fill-opacity="0.1"/>
</svg>
