<svg width="132" height="26" viewBox="0 0 132 26" fill="none" xmlns="http://www.w3.org/2000/svg">
<path d="M90.0577 25.8595H77.4257C73.8774 25.8595 70.9678 22.9499 70.9678 19.4016V6.69864C70.9678 3.15033 73.8774 0.240723 77.4257 0.240723H90.0577C93.606 0.240723 96.5156 3.15033 96.5156 6.69864V19.3306C96.5865 22.9499 93.6769 25.8595 90.0577 25.8595Z" fill="#282828"/>
<path d="M90.7674 8.82736C90.3416 9.04026 89.8449 9.11122 89.3481 9.25316C89.561 9.18219 89.9158 8.82736 90.0578 8.61446C90.2706 8.3306 90.4126 8.04673 90.5545 7.76287V7.6919H90.4835C89.9868 7.97577 89.4191 8.18866 88.8513 8.3306C88.7804 8.3306 88.7804 8.3306 88.7094 8.3306C88.6384 8.25963 88.6384 8.25963 88.5675 8.18866C88.3546 7.97577 88.0707 7.83383 87.7868 7.6919C87.432 7.54997 87.0062 7.479 86.5804 7.479C86.1546 7.479 85.7998 7.62094 85.445 7.83383C85.0901 8.04673 84.7353 8.25963 84.5224 8.61446C84.2385 8.96929 84.0966 9.32412 83.9547 9.74992C83.8837 10.1757 83.8837 10.5305 83.9547 10.9563C83.9547 11.0273 83.9547 11.0273 83.8837 11.0273C81.6128 10.6725 79.6967 9.89185 78.2064 8.1177C78.1354 8.04673 78.1354 8.04673 78.0645 8.1177C77.4258 9.11122 77.7096 10.7434 78.5612 11.5241C78.7032 11.595 78.7741 11.737 78.9161 11.8079C78.8451 11.8079 78.3483 11.737 77.8516 11.5241C77.7806 11.4531 77.7806 11.5241 77.7806 11.595C77.7806 11.737 77.7806 11.8079 77.7806 11.9499C77.9225 12.9434 78.6322 13.9369 79.5548 14.2917C79.6967 14.3627 79.7677 14.3627 79.9096 14.4337C79.6967 14.5046 79.4838 14.5046 78.8451 14.4337C78.7741 14.4337 78.7032 14.4337 78.7741 14.5046C79.2709 15.782 80.2644 16.2078 81.0451 16.4207C81.116 16.4207 81.258 16.4207 81.3289 16.4917C81.0451 16.8465 80.1935 17.2014 79.7677 17.3433C79.058 17.6272 78.2064 17.6981 77.4258 17.6272C77.2839 17.6272 77.2839 17.6272 77.2129 17.6272C77.2129 17.6272 77.2129 17.6981 77.2839 17.6981C77.4258 17.7691 77.6387 17.911 77.7806 17.982C78.2774 18.2658 78.7741 18.4787 79.3419 18.6207C82.1805 19.4013 85.303 18.8336 87.432 16.7046C89.0642 15.0724 89.7029 12.8015 89.7029 10.5305C89.7029 10.4596 89.7739 10.3886 89.8449 10.3176C90.2706 9.96282 90.6255 9.60799 90.9803 9.18219C90.8384 8.89833 90.8384 8.82736 90.7674 8.82736C90.8384 8.82736 90.8384 8.82736 90.7674 8.82736C90.8384 8.75639 90.8384 8.75639 90.7674 8.82736Z" fill="#F0EEEE"/>
<path d="M54.5743 25.8595H41.9423C38.394 25.8595 35.4844 22.9499 35.4844 19.4016V6.69864C35.4844 3.15033 38.394 0.240723 41.9423 0.240723H54.5743C58.1226 0.240723 61.0322 3.15033 61.0322 6.69864V19.3306C61.1031 22.9499 58.1935 25.8595 54.5743 25.8595Z" fill="#282828"/>
<path d="M52.2325 8.33057C51.7357 8.33057 51.3809 8.6854 51.3809 9.18216C51.3809 9.67892 51.7357 10.0338 52.2325 10.0338C52.7292 10.0338 53.084 9.67892 53.084 9.18216C53.084 8.6854 52.6582 8.33057 52.2325 8.33057Z" fill="#F0EEEE"/>
<path d="M48.3292 9.39502C46.3422 9.39502 44.71 11.0272 44.71 13.0143C44.71 15.0013 46.3422 16.6336 48.3292 16.6336C50.3163 16.6336 51.9485 15.0013 51.9485 13.0143C52.0195 11.0272 50.3872 9.39502 48.3292 9.39502ZM48.3292 15.4271C47.0518 15.4271 45.9874 14.3626 45.9874 13.0853C45.9874 11.8079 47.0518 10.7434 48.3292 10.7434C49.6066 10.7434 50.6711 11.8079 50.6711 13.0853C50.6711 14.3626 49.6066 15.4271 48.3292 15.4271Z" fill="#F0EEEE"/>
<path d="M51.239 20.4657H45.3488C42.865 20.4657 40.8779 18.4787 40.8779 15.9948V10.1047C40.8779 7.62084 42.865 5.63379 45.3488 5.63379H51.239C53.7228 5.63379 55.7098 7.62084 55.7098 10.1047V15.9948C55.7098 18.4787 53.7228 20.4657 51.239 20.4657ZM45.3488 7.05311C43.6456 7.05311 42.2973 8.40147 42.2973 10.1047V15.9948C42.2973 17.698 43.6456 19.0464 45.3488 19.0464H51.239C52.9422 19.0464 54.2905 17.698 54.2905 15.9948V10.1047C54.2905 8.40147 52.9422 7.05311 51.239 7.05311H45.3488Z" fill="#F0EEEE"/>
<path d="M19.0918 25.8595H14.7629L12.7758 25.1498L10.7888 25.7885H6.45987C2.91156 25.7885 0.00195312 22.8789 0.00195312 19.3306V6.69864C0.00195312 3.15033 2.91156 0.240723 6.45987 0.240723H19.0918C22.6401 0.240723 25.5497 3.15033 25.5497 6.69864V19.3306C25.6207 22.9499 22.7111 25.8595 19.0918 25.8595Z" fill="#282828"/>
<path d="M10.7892 10.2472V13.0149H7.5957V16.6342H10.7892V25.7888H14.7633V16.7052H17.7439L18.3116 13.0859H14.8342V10.744C14.8342 9.75048 15.331 8.75696 16.8923 8.75696H18.4535V5.56348C18.4535 5.56348 17.0342 5.35059 15.6149 5.35059C12.7053 5.35059 10.7892 7.05377 10.7892 10.2472Z" fill="#F0EEEE"/>
<path d="M125.541 25.8595H112.909C109.361 25.8595 106.451 22.9499 106.451 19.4016V6.69864C106.451 3.15033 109.361 0.240723 112.909 0.240723H125.541C129.089 0.240723 131.999 3.15033 131.999 6.69864V19.3306C132.07 22.9499 129.16 25.8595 125.541 25.8595Z" fill="#282828"/>
<path d="M119.864 11.8791C120.219 11.4533 120.716 11.1695 121.212 11.0985C122.206 10.9566 123.199 10.9566 123.909 11.8791C124.335 12.3759 124.548 13.0146 124.548 13.7242C124.619 15.1436 124.619 16.5629 124.619 17.9822C124.619 18.337 124.477 18.5499 124.051 18.5499C123.625 18.5499 123.128 18.5499 122.703 18.5499C122.277 18.5499 122.135 18.408 122.135 17.9822C122.135 16.8467 122.135 15.7113 122.135 14.5758C122.135 14.292 122.064 14.0791 121.993 13.7952C121.851 13.3694 121.567 13.1565 121.141 13.1565C120.716 13.1565 120.29 13.2275 120.148 13.6533C120.006 13.9371 119.864 14.292 119.864 14.6468C119.793 15.7113 119.864 16.8467 119.864 17.9112C119.864 18.408 119.722 18.5499 119.225 18.5499C118.8 18.5499 118.374 18.5499 118.019 18.5499C117.593 18.5499 117.451 18.408 117.451 17.9822C117.451 15.9242 117.451 13.7952 117.451 11.7372C117.451 11.3114 117.593 11.1695 118.019 11.1695C118.445 11.1695 118.8 11.1695 119.225 11.1695C119.651 11.1695 119.793 11.3114 119.864 11.8082C119.864 11.7372 119.864 11.8082 119.864 11.8791Z" fill="#F0EEEE"/>
<path d="M116.528 14.7887C116.528 15.8532 116.528 16.8467 116.528 17.9112C116.528 18.337 116.386 18.4789 115.961 18.4789C115.535 18.4789 115.109 18.4789 114.754 18.4789C114.328 18.4789 114.187 18.337 114.187 17.9112C114.187 15.8532 114.187 13.7952 114.187 11.7372C114.187 11.3114 114.328 11.1694 114.754 11.1694C115.18 11.1694 115.535 11.1694 115.961 11.1694C116.386 11.1694 116.599 11.3114 116.599 11.8081C116.528 12.7307 116.528 13.7952 116.528 14.7887Z" fill="#F0EEEE"/>
<path d="M113.832 9.11155C113.832 8.25995 114.542 7.55029 115.322 7.55029C116.174 7.55029 116.813 8.25995 116.813 9.04058C116.813 9.89217 116.103 10.6018 115.251 10.6018C114.471 10.6018 113.832 9.96314 113.832 9.11155Z" fill="#F0EEEE"/>
</svg>
